<?xml version="1.0" encoding="UTF-8" standalone="no"?>
<!DOCTYPE svg PUBLIC "-//W3C//DTD SVG 1.1//EN"
 "http://www.w3.org/Graphics/SVG/1.1/DTD/svg11.dtd">
<!-- Generated by graphviz version 2.40.20161221.0239 (20161221.0239)
 -->
<!-- Title: controllers_diagram Pages: 1 -->
<svg width="979pt" height="1045pt"
 viewBox="0.00 0.00 979.10 1045.00" xmlns="http://www.w3.org/2000/svg" xmlns:xlink="http://www.w3.org/1999/xlink">
<g id="graph0" class="graph" transform="scale(1 1) rotate(0) translate(4 1041)">
<title>controllers_diagram</title>
<polygon fill="transparent" stroke="transparent" points="-4,4 -4,-1041 975.0967,-1041 975.0967,4 -4,4"/>
<!-- _diagram_info -->
<g id="node1" class="node">
<title>_diagram_info</title>
<text text-anchor="start" x="328" y="-198.6" font-family="Times,serif" font-size="13.00" fill="#000000">Controllers diagram</text>
<text text-anchor="start" x="328" y="-185.6" font-family="Times,serif" font-size="13.00" fill="#000000">Date: Dec 23 2016 &#45; 23:59</text>
<text text-anchor="start" x="328" y="-172.6" font-family="Times,serif" font-size="13.00" fill="#000000">Migration version: 20161108052146</text>
<text text-anchor="start" x="328" y="-159.6" font-family="Times,serif" font-size="13.00" fill="#000000">Generated by RailRoady 1.5.2</text>
<text text-anchor="start" x="328" y="-146.6" font-family="Times,serif" font-size="13.00" fill="#000000">http://railroady.prestonlee.com</text>
</g>
<!-- ApplicationController -->
<g id="node2" class="node">
<title>ApplicationController</title>
<path fill="none" stroke="#000000" d="M472,-.5C472,-.5 587.6416,-.5 587.6416,-.5 593.6416,-.5 599.6416,-6.5 599.6416,-12.5 599.6416,-12.5 599.6416,-80.5 599.6416,-80.5 599.6416,-86.5 593.6416,-92.5 587.6416,-92.5 587.6416,-92.5 472,-92.5 472,-92.5 466,-92.5 460,-86.5 460,-80.5 460,-80.5 460,-12.5 460,-12.5 460,-6.5 466,-.5 472,-.5"/>
<text text-anchor="middle" x="529.8208" y="-77.3" font-family="Times,serif" font-size="14.00" fill="#000000">ApplicationController</text>
<polyline fill="none" stroke="#000000" points="460,-70.5 599.6416,-70.5 "/>
<polyline fill="none" stroke="#000000" points="460,-46.5 599.6416,-46.5 "/>
<polyline fill="none" stroke="#000000" points="460,-22.5 599.6416,-22.5 "/>
<text text-anchor="start" x="468" y="-7.3" font-family="Times,serif" font-size="14.00" fill="#000000">_layout</text>
</g>
<!-- ContactTypesController -->
<g id="node3" class="node">
<title>ContactTypesController</title>
<path fill="none" stroke="#000000" d="M812,-140.5C812,-140.5 938.3262,-140.5 938.3262,-140.5 944.3262,-140.5 950.3262,-146.5 950.3262,-152.5 950.3262,-152.5 950.3262,-316.5 950.3262,-316.5 950.3262,-322.5 944.3262,-328.5 938.3262,-328.5 938.3262,-328.5 812,-328.5 812,-328.5 806,-328.5 800,-322.5 800,-316.5 800,-316.5 800,-152.5 800,-152.5 800,-146.5 806,-140.5 812,-140.5"/>
<text text-anchor="middle" x="875.1631" y="-313.3" font-family="Times,serif" font-size="14.00" fill="#000000">ContactTypesController</text>
<polyline fill="none" stroke="#000000" points="800,-306.5 950.3262,-306.5 "/>
<text text-anchor="start" x="808" y="-291.3" font-family="Times,serif" font-size="14.00" fill="#000000">create</text>
<text text-anchor="start" x="808" y="-277.3" font-family="Times,serif" font-size="14.00" fill="#000000">destroy</text>
<text text-anchor="start" x="808" y="-263.3" font-family="Times,serif" font-size="14.00" fill="#000000">edit</text>
<text text-anchor="start" x="808" y="-249.3" font-family="Times,serif" font-size="14.00" fill="#000000">index</text>
<text text-anchor="start" x="808" y="-235.3" font-family="Times,serif" font-size="14.00" fill="#000000">new</text>
<text text-anchor="start" x="808" y="-221.3" font-family="Times,serif" font-size="14.00" fill="#000000">show</text>
<text text-anchor="start" x="808" y="-207.3" font-family="Times,serif" font-size="14.00" fill="#000000">update</text>
<polyline fill="none" stroke="#000000" points="800,-200.5 950.3262,-200.5 "/>
<polyline fill="none" stroke="#000000" points="800,-176.5 950.3262,-176.5 "/>
<text text-anchor="start" x="808" y="-161.3" font-family="Times,serif" font-size="14.00" fill="#000000">_layout</text>
<text text-anchor="start" x="808" y="-147.3" font-family="Times,serif" font-size="14.00" fill="#000000">contact_type_params</text>
</g>
<!-- DonationTypesController -->
<g id="node4" class="node">
<title>DonationTypesController</title>
<path fill="none" stroke="#000000" d="M812,-360.5C812,-360.5 946.8848,-360.5 946.8848,-360.5 952.8848,-360.5 958.8848,-366.5 958.8848,-372.5 958.8848,-372.5 958.8848,-536.5 958.8848,-536.5 958.8848,-542.5 952.8848,-548.5 946.8848,-548.5 946.8848,-548.5 812,-548.5 812,-548.5 806,-548.5 800,-542.5 800,-536.5 800,-536.5 800,-372.5 800,-372.5 800,-366.5 806,-360.5 812,-360.5"/>
<text text-anchor="middle" x="879.4424" y="-533.3" font-family="Times,serif" font-size="14.00" fill="#000000">DonationTypesController</text>
<polyline fill="none" stroke="#000000" points="800,-526.5 958.8848,-526.5 "/>
<text text-anchor="start" x="808" y="-511.3" font-family="Times,serif" font-size="14.00" fill="#000000">create</text>
<text text-anchor="start" x="808" y="-497.3" font-family="Times,serif" font-size="14.00" fill="#000000">destroy</text>
<text text-anchor="start" x="808" y="-483.3" font-family="Times,serif" font-size="14.00" fill="#000000">edit</text>
<text text-anchor="start" x="808" y="-469.3" font-family="Times,serif" font-size="14.00" fill="#000000">index</text>
<text text-anchor="start" x="808" y="-455.3" font-family="Times,serif" font-size="14.00" fill="#000000">new</text>
<text text-anchor="start" x="808" y="-441.3" font-family="Times,serif" font-size="14.00" fill="#000000">show</text>
<text text-anchor="start" x="808" y="-427.3" font-family="Times,serif" font-size="14.00" fill="#000000">update</text>
<polyline fill="none" stroke="#000000" points="800,-420.5 958.8848,-420.5 "/>
<polyline fill="none" stroke="#000000" points="800,-396.5 958.8848,-396.5 "/>
<text text-anchor="start" x="808" y="-381.3" font-family="Times,serif" font-size="14.00" fill="#000000">_layout</text>
<text text-anchor="start" x="808" y="-367.3" font-family="Times,serif" font-size="14.00" fill="#000000">donation_type_params</text>
</g>
<!-- DonationsController -->
<g id="node5" class="node">
<title>DonationsController</title>
<path fill="none" stroke="#000000" d="M852,-800.5C852,-800.5 959.0967,-800.5 959.0967,-800.5 965.0967,-800.5 971.0967,-806.5 971.0967,-812.5 971.0967,-812.5 971.0967,-934.5 971.0967,-934.5 971.0967,-940.5 965.0967,-946.5 959.0967,-946.5 959.0967,-946.5 852,-946.5 852,-946.5 846,-946.5 840,-940.5 840,-934.5 840,-934.5 840,-812.5 840,-812.5 840,-806.5 846,-800.5 852,-800.5"/>
<text text-anchor="middle" x="905.5483" y="-931.3" font-family="Times,serif" font-size="14.00" fill="#000000">DonationsController</text>
<polyline fill="none" stroke="#000000" points="840,-924.5 971.0967,-924.5 "/>
<text text-anchor="start" x="848" y="-909.3" font-family="Times,serif" font-size="14.00" fill="#000000">donation_summary</text>
<text text-anchor="start" x="848" y="-895.3" font-family="Times,serif" font-size="14.00" fill="#000000">import</text>
<text text-anchor="start" x="848" y="-881.3" font-family="Times,serif" font-size="14.00" fill="#000000">import_form</text>
<text text-anchor="start" x="848" y="-867.3" font-family="Times,serif" font-size="14.00" fill="#000000">report</text>
<polyline fill="none" stroke="#000000" points="840,-860.5 971.0967,-860.5 "/>
<polyline fill="none" stroke="#000000" points="840,-836.5 971.0967,-836.5 "/>
<text text-anchor="start" x="848" y="-821.3" font-family="Times,serif" font-size="14.00" fill="#000000">_layout</text>
<text text-anchor="start" x="848" y="-807.3" font-family="Times,serif" font-size="14.00" fill="#000000">donations_allowed</text>
</g>
<!-- InterestCategoriesController -->
<g id="node6" class="node">
<title>InterestCategoriesController</title>
<path fill="none" stroke="#000000" d="M592,-140.5C592,-140.5 743.3936,-140.5 743.3936,-140.5 749.3936,-140.5 755.3936,-146.5 755.3936,-152.5 755.3936,-152.5 755.3936,-316.5 755.3936,-316.5 755.3936,-322.5 749.3936,-328.5 743.3936,-328.5 743.3936,-328.5 592,-328.5 592,-328.5 586,-328.5 580,-322.5 580,-316.5 580,-316.5 580,-152.5 580,-152.5 580,-146.5 586,-140.5 592,-140.5"/>
<text text-anchor="middle" x="667.6968" y="-313.3" font-family="Times,serif" font-size="14.00" fill="#000000">InterestCategoriesController</text>
<polyline fill="none" stroke="#000000" points="580,-306.5 755.3936,-306.5 "/>
<text text-anchor="start" x="588" y="-291.3" font-family="Times,serif" font-size="14.00" fill="#000000">create</text>
<text text-anchor="start" x="588" y="-277.3" font-family="Times,serif" font-size="14.00" fill="#000000">destroy</text>
<text text-anchor="start" x="588" y="-263.3" font-family="Times,serif" font-size="14.00" fill="#000000">edit</text>
<text text-anchor="start" x="588" y="-249.3" font-family="Times,serif" font-size="14.00" fill="#000000">index</text>
<text text-anchor="start" x="588" y="-235.3" font-family="Times,serif" font-size="14.00" fill="#000000">new</text>
<text text-anchor="start" x="588" y="-221.3" font-family="Times,serif" font-size="14.00" fill="#000000">show</text>
<text text-anchor="start" x="588" y="-207.3" font-family="Times,serif" font-size="14.00" fill="#000000">update</text>
<polyline fill="none" stroke="#000000" points="580,-200.5 755.3936,-200.5 "/>
<polyline fill="none" stroke="#000000" points="580,-176.5 755.3936,-176.5 "/>
<text text-anchor="start" x="588" y="-161.3" font-family="Times,serif" font-size="14.00" fill="#000000">_layout</text>
<text text-anchor="start" x="588" y="-147.3" font-family="Times,serif" font-size="14.00" fill="#000000">interest_category_params</text>
</g>
<!-- InterestsController -->
<g id="node7" class="node">
<title>InterestsController</title>
<path fill="none" stroke="#000000" d="M852,-580.5C852,-580.5 948.9727,-580.5 948.9727,-580.5 954.9727,-580.5 960.9727,-586.5 960.9727,-592.5 960.9727,-592.5 960.9727,-756.5 960.9727,-756.5 960.9727,-762.5 954.9727,-768.5 948.9727,-768.5 948.9727,-768.5 852,-768.5 852,-768.5 846,-768.5 840,-762.5 840,-756.5 840,-756.5 840,-592.5 840,-592.5 840,-586.5 846,-580.5 852,-580.5"/>
<text text-anchor="middle" x="900.4863" y="-753.3" font-family="Times,serif" font-size="14.00" fill="#000000">InterestsController</text>
<polyline fill="none" stroke="#000000" points="840,-746.5 960.9727,-746.5 "/>
<text text-anchor="start" x="848" y="-731.3" font-family="Times,serif" font-size="14.00" fill="#000000">create</text>
<text text-anchor="start" x="848" y="-717.3" font-family="Times,serif" font-size="14.00" fill="#000000">destroy</text>
<text text-anchor="start" x="848" y="-703.3" font-family="Times,serif" font-size="14.00" fill="#000000">edit</text>
<text text-anchor="start" x="848" y="-689.3" font-family="Times,serif" font-size="14.00" fill="#000000">index</text>
<text text-anchor="start" x="848" y="-675.3" font-family="Times,serif" font-size="14.00" fill="#000000">new</text>
<text text-anchor="start" x="848" y="-661.3" font-family="Times,serif" font-size="14.00" fill="#000000">show</text>
<text text-anchor="start" x="848" y="-647.3" font-family="Times,serif" font-size="14.00" fill="#000000">update</text>
<polyline fill="none" stroke="#000000" points="840,-640.5 960.9727,-640.5 "/>
<polyline fill="none" stroke="#000000" points="840,-616.5 960.9727,-616.5 "/>
<text text-anchor="start" x="848" y="-601.3" font-family="Times,serif" font-size="14.00" fill="#000000">_layout</text>
<text text-anchor="start" x="848" y="-587.3" font-family="Times,serif" font-size="14.00" fill="#000000">interest_params</text>
</g>
<!-- OrganizationTypesController -->
<g id="node8" class="node">
<title>OrganizationTypesController</title>
<path fill="none" stroke="#000000" d="M172,-260.5C172,-260.5 327.6182,-260.5 327.6182,-260.5 333.6182,-260.5 339.6182,-266.5 339.6182,-272.5 339.6182,-272.5 339.6182,-436.5 339.6182,-436.5 339.6182,-442.5 333.6182,-448.5 327.6182,-448.5 327.6182,-448.5 172,-448.5 172,-448.5 166,-448.5 160,-442.5 160,-436.5 160,-436.5 160,-272.5 160,-272.5 160,-266.5 166,-260.5 172,-260.5"/>
<text text-anchor="middle" x="249.8091" y="-433.3" font-family="Times,serif" font-size="14.00" fill="#000000">OrganizationTypesController</text>
<polyline fill="none" stroke="#000000" points="160,-426.5 339.6182,-426.5 "/>
<text text-anchor="start" x="168" y="-411.3" font-family="Times,serif" font-size="14.00" fill="#000000">create</text>
<text text-anchor="start" x="168" y="-397.3" font-family="Times,serif" font-size="14.00" fill="#000000">destroy</text>
<text text-anchor="start" x="168" y="-383.3" font-family="Times,serif" font-size="14.00" fill="#000000">edit</text>
<text text-anchor="start" x="168" y="-369.3" font-family="Times,serif" font-size="14.00" fill="#000000">index</text>
<text text-anchor="start" x="168" y="-355.3" font-family="Times,serif" font-size="14.00" fill="#000000">new</text>
<text text-anchor="start" x="168" y="-341.3" font-family="Times,serif" font-size="14.00" fill="#000000">show</text>
<text text-anchor="start" x="168" y="-327.3" font-family="Times,serif" font-size="14.00" fill="#000000">update</text>
<polyline fill="none" stroke="#000000" points="160,-320.5 339.6182,-320.5 "/>
<polyline fill="none" stroke="#000000" points="160,-296.5 339.6182,-296.5 "/>
<text text-anchor="start" x="168" y="-281.3" font-family="Times,serif" font-size="14.00" fill="#000000">_layout</text>
<text text-anchor="start" x="168" y="-267.3" font-family="Times,serif" font-size="14.00" fill="#000000">organization_type_params</text>
</g>
<!-- OrganizationsController -->
<g id="node9" class="node">
<title>OrganizationsController</title>
<path fill="none" stroke="#000000" d="M592,-360.5C592,-360.5 743.9063,-360.5 743.9063,-360.5 749.9063,-360.5 755.9063,-366.5 755.9063,-372.5 755.9063,-372.5 755.9063,-648.5 755.9063,-648.5 755.9063,-654.5 749.9063,-660.5 743.9063,-660.5 743.9063,-660.5 592,-660.5 592,-660.5 586,-660.5 580,-654.5 580,-648.5 580,-648.5 580,-372.5 580,-372.5 580,-366.5 586,-360.5 592,-360.5"/>
<text text-anchor="middle" x="667.9531" y="-645.3" font-family="Times,serif" font-size="14.00" fill="#000000">OrganizationsController</text>
<polyline fill="none" stroke="#000000" points="580,-638.5 755.9063,-638.5 "/>
<text text-anchor="start" x="588" y="-623.3" font-family="Times,serif" font-size="14.00" fill="#000000">address_check</text>
<text text-anchor="start" x="588" y="-609.3" font-family="Times,serif" font-size="14.00" fill="#000000">create</text>
<text text-anchor="start" x="588" y="-595.3" font-family="Times,serif" font-size="14.00" fill="#000000">destroy</text>
<text text-anchor="start" x="588" y="-581.3" font-family="Times,serif" font-size="14.00" fill="#000000">donations</text>
<text text-anchor="start" x="588" y="-567.3" font-family="Times,serif" font-size="14.00" fill="#000000">edit</text>
<text text-anchor="start" x="588" y="-553.3" font-family="Times,serif" font-size="14.00" fill="#000000">import</text>
<text text-anchor="start" x="588" y="-539.3" font-family="Times,serif" font-size="14.00" fill="#000000">import_form</text>
<text text-anchor="start" x="588" y="-525.3" font-family="Times,serif" font-size="14.00" fill="#000000">index</text>
<text text-anchor="start" x="588" y="-511.3" font-family="Times,serif" font-size="14.00" fill="#000000">new</text>
<text text-anchor="start" x="588" y="-497.3" font-family="Times,serif" font-size="14.00" fill="#000000">search</text>
<text text-anchor="start" x="588" y="-483.3" font-family="Times,serif" font-size="14.00" fill="#000000">show</text>
<text text-anchor="start" x="588" y="-469.3" font-family="Times,serif" font-size="14.00" fill="#000000">update</text>
<polyline fill="none" stroke="#000000" points="580,-462.5 755.9063,-462.5 "/>
<polyline fill="none" stroke="#000000" points="580,-438.5 755.9063,-438.5 "/>
<text text-anchor="start" x="588" y="-423.3" font-family="Times,serif" font-size="14.00" fill="#000000">_layout</text>
<text text-anchor="start" x="588" y="-409.3" font-family="Times,serif" font-size="14.00" fill="#000000">donations_allowed</text>
<text text-anchor="start" x="588" y="-395.3" font-family="Times,serif" font-size="14.00" fill="#000000">logged_in_user</text>
<text text-anchor="start" x="588" y="-381.3" font-family="Times,serif" font-size="14.00" fill="#000000">organization_params</text>
<text text-anchor="start" x="588" y="-367.3" font-family="Times,serif" font-size="14.00" fill="#000000">organization_search_params</text>
</g>
<!-- PendingVolunteersController -->
<g id="node10" class="node">
<title>PendingVolunteersController</title>
<path fill="none" stroke="#000000" d="M472,-700.5C472,-700.5 627.0576,-700.5 627.0576,-700.5 633.0576,-700.5 639.0576,-706.5 639.0576,-712.5 639.0576,-712.5 639.0576,-904.5 639.0576,-904.5 639.0576,-910.5 633.0576,-916.5 627.0576,-916.5 627.0576,-916.5 472,-916.5 472,-916.5 466,-916.5 460,-910.5 460,-904.5 460,-904.5 460,-712.5 460,-712.5 460,-706.5 466,-700.5 472,-700.5"/>
<text text-anchor="middle" x="549.5288" y="-901.3" font-family="Times,serif" font-size="14.00" fill="#000000">PendingVolunteersController</text>
<polyline fill="none" stroke="#000000" points="460,-894.5 639.0576,-894.5 "/>
<text text-anchor="start" x="468" y="-879.3" font-family="Times,serif" font-size="14.00" fill="#000000">create</text>
<text text-anchor="start" x="468" y="-865.3" font-family="Times,serif" font-size="14.00" fill="#000000">destroy</text>
<text text-anchor="start" x="468" y="-851.3" font-family="Times,serif" font-size="14.00" fill="#000000">edit</text>
<text text-anchor="start" x="468" y="-837.3" font-family="Times,serif" font-size="14.00" fill="#000000">index</text>
<text text-anchor="start" x="468" y="-823.3" font-family="Times,serif" font-size="14.00" fill="#000000">match</text>
<text text-anchor="start" x="468" y="-809.3" font-family="Times,serif" font-size="14.00" fill="#000000">new</text>
<text text-anchor="start" x="468" y="-795.3" font-family="Times,serif" font-size="14.00" fill="#000000">show</text>
<text text-anchor="start" x="468" y="-781.3" font-family="Times,serif" font-size="14.00" fill="#000000">update</text>
<polyline fill="none" stroke="#000000" points="460,-774.5 639.0576,-774.5 "/>
<polyline fill="none" stroke="#000000" points="460,-750.5 639.0576,-750.5 "/>
<text text-anchor="start" x="468" y="-735.3" font-family="Times,serif" font-size="14.00" fill="#000000">_layout</text>
<text text-anchor="start" x="468" y="-721.3" font-family="Times,serif" font-size="14.00" fill="#000000">pending_volunteer_params</text>
<text text-anchor="start" x="468" y="-707.3" font-family="Times,serif" font-size="14.00" fill="#000000">verify_google_recptcha</text>
</g>
<!-- ProjectsController -->
<g id="node11" class="node">
<title>ProjectsController</title>
<path fill="none" stroke="#000000" d="M132,-820.5C132,-820.5 226.6484,-820.5 226.6484,-820.5 232.6484,-820.5 238.6484,-826.5 238.6484,-832.5 238.6484,-832.5 238.6484,-1024.5 238.6484,-1024.5 238.6484,-1030.5 232.6484,-1036.5 226.6484,-1036.5 226.6484,-1036.5 132,-1036.5 132,-1036.5 126,-1036.5 120,-1030.5 120,-1024.5 120,-1024.5 120,-832.5 120,-832.5 120,-826.5 126,-820.5 132,-820.5"/>
<text text-anchor="middle" x="179.3242" y="-1021.3" font-family="Times,serif" font-size="14.00" fill="#000000">ProjectsController</text>
<polyline fill="none" stroke="#000000" points="120,-1014.5 238.6484,-1014.5 "/>
<text text-anchor="start" x="128" y="-999.3" font-family="Times,serif" font-size="14.00" fill="#000000">create</text>
<text text-anchor="start" x="128" y="-985.3" font-family="Times,serif" font-size="14.00" fill="#000000">destroy</text>
<text text-anchor="start" x="128" y="-971.3" font-family="Times,serif" font-size="14.00" fill="#000000">edit</text>
<text text-anchor="start" x="128" y="-957.3" font-family="Times,serif" font-size="14.00" fill="#000000">import</text>
<text text-anchor="start" x="128" y="-943.3" font-family="Times,serif" font-size="14.00" fill="#000000">import_form</text>
<text text-anchor="start" x="128" y="-929.3" font-family="Times,serif" font-size="14.00" fill="#000000">index</text>
<text text-anchor="start" x="128" y="-915.3" font-family="Times,serif" font-size="14.00" fill="#000000">new</text>
<text text-anchor="start" x="128" y="-901.3" font-family="Times,serif" font-size="14.00" fill="#000000">show</text>
<text text-anchor="start" x="128" y="-887.3" font-family="Times,serif" font-size="14.00" fill="#000000">update</text>
<polyline fill="none" stroke="#000000" points="120,-880.5 238.6484,-880.5 "/>
<polyline fill="none" stroke="#000000" points="120,-856.5 238.6484,-856.5 "/>
<text text-anchor="start" x="128" y="-841.3" font-family="Times,serif" font-size="14.00" fill="#000000">_layout</text>
<text text-anchor="start" x="128" y="-827.3" font-family="Times,serif" font-size="14.00" fill="#000000">project_params</text>
</g>
<!-- SessionsController -->
<g id="node12" class="node">
<title>SessionsController</title>
<path fill="none" stroke="#000000" d="M12,-540.5C12,-540.5 109.7793,-540.5 109.7793,-540.5 115.7793,-540.5 121.7793,-546.5 121.7793,-552.5 121.7793,-552.5 121.7793,-646.5 121.7793,-646.5 121.7793,-652.5 115.7793,-658.5 109.7793,-658.5 109.7793,-658.5 12,-658.5 12,-658.5 6,-658.5 0,-652.5 0,-646.5 0,-646.5 0,-552.5 0,-552.5 0,-546.5 6,-540.5 12,-540.5"/>
<text text-anchor="middle" x="60.8896" y="-643.3" font-family="Times,serif" font-size="14.00" fill="#000000">SessionsController</text>
<polyline fill="none" stroke="#000000" points="0,-636.5 121.7793,-636.5 "/>
<text text-anchor="start" x="8" y="-621.3" font-family="Times,serif" font-size="14.00" fill="#000000">create</text>
<text text-anchor="start" x="8" y="-607.3" font-family="Times,serif" font-size="14.00" fill="#000000">destroy</text>
<text text-anchor="start" x="8" y="-593.3" font-family="Times,serif" font-size="14.00" fill="#000000">new</text>
<polyline fill="none" stroke="#000000" points="0,-586.5 121.7793,-586.5 "/>
<polyline fill="none" stroke="#000000" points="0,-562.5 121.7793,-562.5 "/>
<text text-anchor="start" x="8" y="-547.3" font-family="Times,serif" font-size="14.00" fill="#000000">_layout</text>
</g>
<!-- SettingsController -->
<g id="node13" class="node">
<title>SettingsController</title>
<path fill="none" stroke="#000000" d="M12,-380.5C12,-380.5 106.6621,-380.5 106.6621,-380.5 112.6621,-380.5 118.6621,-386.5 118.6621,-392.5 118.6621,-392.5 118.6621,-486.5 118.6621,-486.5 118.6621,-492.5 112.6621,-498.5 106.6621,-498.5 106.6621,-498.5 12,-498.5 12,-498.5 6,-498.5 0,-492.5 0,-486.5 0,-486.5 0,-392.5 0,-392.5 0,-386.5 6,-380.5 12,-380.5"/>
<text text-anchor="middle" x="59.3311" y="-483.3" font-family="Times,serif" font-size="14.00" fill="#000000">SettingsController</text>
<polyline fill="none" stroke="#000000" points="0,-476.5 118.6621,-476.5 "/>
<text text-anchor="start" x="8" y="-461.3" font-family="Times,serif" font-size="14.00" fill="#000000">edit</text>
<text text-anchor="start" x="8" y="-447.3" font-family="Times,serif" font-size="14.00" fill="#000000">update</text>
<polyline fill="none" stroke="#000000" points="0,-440.5 118.6621,-440.5 "/>
<polyline fill="none" stroke="#000000" points="0,-416.5 118.6621,-416.5 "/>
<text text-anchor="start" x="8" y="-401.3" font-family="Times,serif" font-size="14.00" fill="#000000">_layout</text>
<text text-anchor="start" x="8" y="-387.3" font-family="Times,serif" font-size="14.00" fill="#000000">setting_params</text>
</g>
<!-- StaticPagesController -->
<g id="node14" class="node">
<title>StaticPagesController</title>
<path fill="none" stroke="#000000" d="M112,-700.5C112,-700.5 226.0898,-700.5 226.0898,-700.5 232.0898,-700.5 238.0898,-706.5 238.0898,-712.5 238.0898,-712.5 238.0898,-778.5 238.0898,-778.5 238.0898,-784.5 232.0898,-790.5 226.0898,-790.5 226.0898,-790.5 112,-790.5 112,-790.5 106,-790.5 100,-784.5 100,-778.5 100,-778.5 100,-712.5 100,-712.5 100,-706.5 106,-700.5 112,-700.5"/>
<text text-anchor="middle" x="169.0449" y="-775.3" font-family="Times,serif" font-size="14.00" fill="#000000">StaticPagesController</text>
<polyline fill="none" stroke="#000000" points="100,-768.5 238.0898,-768.5 "/>
<text text-anchor="start" x="108" y="-753.3" font-family="Times,serif" font-size="14.00" fill="#000000">home</text>
<polyline fill="none" stroke="#000000" points="100,-746.5 238.0898,-746.5 "/>
<polyline fill="none" stroke="#000000" points="100,-722.5 238.0898,-722.5 "/>
<text text-anchor="start" x="108" y="-707.3" font-family="Times,serif" font-size="14.00" fill="#000000">_layout</text>
</g>
<!-- UsersController -->
<g id="node15" class="node">
<title>UsersController</title>
<path fill="none" stroke="#000000" d="M292,-700.5C292,-700.5 413.835,-700.5 413.835,-700.5 419.835,-700.5 425.835,-706.5 425.835,-712.5 425.835,-712.5 425.835,-918.5 425.835,-918.5 425.835,-924.5 419.835,-930.5 413.835,-930.5 413.835,-930.5 292,-930.5 292,-930.5 286,-930.5 280,-924.5 280,-918.5 280,-918.5 280,-712.5 280,-712.5 280,-706.5 286,-700.5 292,-700.5"/>
<text text-anchor="middle" x="352.9175" y="-915.3" font-family="Times,serif" font-size="14.00" fill="#000000">UsersController</text>
<polyline fill="none" stroke="#000000" points="280,-908.5 425.835,-908.5 "/>
<text text-anchor="start" x="288" y="-893.3" font-family="Times,serif" font-size="14.00" fill="#000000">create</text>
<text text-anchor="start" x="288" y="-879.3" font-family="Times,serif" font-size="14.00" fill="#000000">destroy</text>
<text text-anchor="start" x="288" y="-865.3" font-family="Times,serif" font-size="14.00" fill="#000000">edit</text>
<text text-anchor="start" x="288" y="-851.3" font-family="Times,serif" font-size="14.00" fill="#000000">index</text>
<text text-anchor="start" x="288" y="-837.3" font-family="Times,serif" font-size="14.00" fill="#000000">new</text>
<text text-anchor="start" x="288" y="-823.3" font-family="Times,serif" font-size="14.00" fill="#000000">show</text>
<text text-anchor="start" x="288" y="-809.3" font-family="Times,serif" font-size="14.00" fill="#000000">update</text>
<polyline fill="none" stroke="#000000" points="280,-802.5 425.835,-802.5 "/>
<polyline fill="none" stroke="#000000" points="280,-778.5 425.835,-778.5 "/>
<text text-anchor="start" x="288" y="-763.3" font-family="Times,serif" font-size="14.00" fill="#000000">_layout</text>
<text text-anchor="start" x="288" y="-749.3" font-family="Times,serif" font-size="14.00" fill="#000000">correct_or_admin_user</text>
<text text-anchor="start" x="288" y="-735.3" font-family="Times,serif" font-size="14.00" fill="#000000">correct_user</text>
<text text-anchor="start" x="288" y="-721.3" font-family="Times,serif" font-size="14.00" fill="#000000">set_user</text>
<text text-anchor="start" x="288" y="-707.3" font-family="Times,serif" font-size="14.00" fill="#000000">user_params</text>
</g>
<!-- VolunteerCategoriesController -->
<g id="node16" class="node">
<title>VolunteerCategoriesController</title>
<path fill="none" stroke="#000000" d="M172,-480.5C172,-480.5 335.5889,-480.5 335.5889,-480.5 341.5889,-480.5 347.5889,-486.5 347.5889,-492.5 347.5889,-492.5 347.5889,-656.5 347.5889,-656.5 347.5889,-662.5 341.5889,-668.5 335.5889,-668.5 335.5889,-668.5 172,-668.5 172,-668.5 166,-668.5 160,-662.5 160,-656.5 160,-656.5 160,-492.5 160,-492.5 160,-486.5 166,-480.5 172,-480.5"/>
<text text-anchor="middle" x="253.7944" y="-653.3" font-family="Times,serif" font-size="14.00" fill="#000000">VolunteerCategoriesController</text>
<polyline fill="none" stroke="#000000" points="160,-646.5 347.5889,-646.5 "/>
<text text-anchor="start" x="168" y="-631.3" font-family="Times,serif" font-size="14.00" fill="#000000">create</text>
<text text-anchor="start" x="168" y="-617.3" font-family="Times,serif" font-size="14.00" fill="#000000">destroy</text>
<text text-anchor="start" x="168" y="-603.3" font-family="Times,serif" font-size="14.00" fill="#000000">edit</text>
<text text-anchor="start" x="168" y="-589.3" font-family="Times,serif" font-size="14.00" fill="#000000">index</text>
<text text-anchor="start" x="168" y="-575.3" font-family="Times,serif" font-size="14.00" fill="#000000">new</text>
<text text-anchor="start" x="168" y="-561.3" font-family="Times,serif" font-size="14.00" fill="#000000">show</text>
<text text-anchor="start" x="168" y="-547.3" font-family="Times,serif" font-size="14.00" fill="#000000">update</text>
<polyline fill="none" stroke="#000000" points="160,-540.5 347.5889,-540.5 "/>
<polyline fill="none" stroke="#000000" points="160,-516.5 347.5889,-516.5 "/>
<text text-anchor="start" x="168" y="-501.3" font-family="Times,serif" font-size="14.00" fill="#000000">_layout</text>
<text text-anchor="start" x="168" y="-487.3" font-family="Times,serif" font-size="14.00" fill="#000000">volunteer_category_params</text>
</g>
<!-- VolunteersController -->
<g id="node17" class="node">
<title>VolunteersController</title>
<path fill="none" stroke="#000000" d="M392,-300.5C392,-300.5 527.0488,-300.5 527.0488,-300.5 533.0488,-300.5 539.0488,-306.5 539.0488,-312.5 539.0488,-312.5 539.0488,-644.5 539.0488,-644.5 539.0488,-650.5 533.0488,-656.5 527.0488,-656.5 527.0488,-656.5 392,-656.5 392,-656.5 386,-656.5 380,-650.5 380,-644.5 380,-644.5 380,-312.5 380,-312.5 380,-306.5 386,-300.5 392,-300.5"/>
<text text-anchor="middle" x="459.5244" y="-641.3" font-family="Times,serif" font-size="14.00" fill="#000000">VolunteersController</text>
<polyline fill="none" stroke="#000000" points="380,-634.5 539.0488,-634.5 "/>
<text text-anchor="start" x="388" y="-619.3" font-family="Times,serif" font-size="14.00" fill="#000000">address_check</text>
<text text-anchor="start" x="388" y="-605.3" font-family="Times,serif" font-size="14.00" fill="#000000">create</text>
<text text-anchor="start" x="388" y="-591.3" font-family="Times,serif" font-size="14.00" fill="#000000">destroy</text>
<text text-anchor="start" x="388" y="-577.3" font-family="Times,serif" font-size="14.00" fill="#000000">donations</text>
<text text-anchor="start" x="388" y="-563.3" font-family="Times,serif" font-size="14.00" fill="#000000">edit</text>
<text text-anchor="start" x="388" y="-549.3" font-family="Times,serif" font-size="14.00" fill="#000000">import</text>
<text text-anchor="start" x="388" y="-535.3" font-family="Times,serif" font-size="14.00" fill="#000000">import_form</text>
<text text-anchor="start" x="388" y="-521.3" font-family="Times,serif" font-size="14.00" fill="#000000">index</text>
<text text-anchor="start" x="388" y="-507.3" font-family="Times,serif" font-size="14.00" fill="#000000">merge</text>
<text text-anchor="start" x="388" y="-493.3" font-family="Times,serif" font-size="14.00" fill="#000000">merge_form</text>
<text text-anchor="start" x="388" y="-479.3" font-family="Times,serif" font-size="14.00" fill="#000000">new</text>
<text text-anchor="start" x="388" y="-465.3" font-family="Times,serif" font-size="14.00" fill="#000000">search</text>
<text text-anchor="start" x="388" y="-451.3" font-family="Times,serif" font-size="14.00" fill="#000000">search_merge</text>
<text text-anchor="start" x="388" y="-437.3" font-family="Times,serif" font-size="14.00" fill="#000000">show</text>
<text text-anchor="start" x="388" y="-423.3" font-family="Times,serif" font-size="14.00" fill="#000000">update</text>
<polyline fill="none" stroke="#000000" points="380,-416.5 539.0488,-416.5 "/>
<polyline fill="none" stroke="#000000" points="380,-392.5 539.0488,-392.5 "/>
<text text-anchor="start" x="388" y="-377.3" font-family="Times,serif" font-size="14.00" fill="#000000">_layout</text>
<text text-anchor="start" x="388" y="-363.3" font-family="Times,serif" font-size="14.00" fill="#000000">donation_setup</text>
<text text-anchor="start" x="388" y="-349.3" font-family="Times,serif" font-size="14.00" fill="#000000">donations_allowed</text>
<text text-anchor="start" x="388" y="-335.3" font-family="Times,serif" font-size="14.00" fill="#000000">edit_setup</text>
<text text-anchor="start" x="388" y="-321.3" font-family="Times,serif" font-size="14.00" fill="#000000">volunteer_params</text>
<text text-anchor="start" x="388" y="-307.3" font-family="Times,serif" font-size="14.00" fill="#000000">volunteer_search_params</text>
</g>
<!-- WorkdayVolunteersController -->
<g id="node18" class="node">
<title>WorkdayVolunteersController</title>
<path fill="none" stroke="#000000" d="M112,-120.5C112,-120.5 272.1436,-120.5 272.1436,-120.5 278.1436,-120.5 284.1436,-126.5 284.1436,-132.5 284.1436,-132.5 284.1436,-212.5 284.1436,-212.5 284.1436,-218.5 278.1436,-224.5 272.1436,-224.5 272.1436,-224.5 112,-224.5 112,-224.5 106,-224.5 100,-218.5 100,-212.5 100,-212.5 100,-132.5 100,-132.5 100,-126.5 106,-120.5 112,-120.5"/>
<text text-anchor="middle" x="192.0718" y="-209.3" font-family="Times,serif" font-size="14.00" fill="#000000">WorkdayVolunteersController</text>
<polyline fill="none" stroke="#000000" points="100,-202.5 284.1436,-202.5 "/>
<text text-anchor="start" x="108" y="-187.3" font-family="Times,serif" font-size="14.00" fill="#000000">import</text>
<text text-anchor="start" x="108" y="-173.3" font-family="Times,serif" font-size="14.00" fill="#000000">import_form</text>
<polyline fill="none" stroke="#000000" points="100,-166.5 284.1436,-166.5 "/>
<polyline fill="none" stroke="#000000" points="100,-142.5 284.1436,-142.5 "/>
<text text-anchor="start" x="108" y="-127.3" font-family="Times,serif" font-size="14.00" fill="#000000">_layout</text>
</g>
<!-- WorkdaysController -->
<g id="node19" class="node">
<title>WorkdaysController</title>
<path fill="none" stroke="#000000" d="M692,-700.5C692,-700.5 797.9688,-700.5 797.9688,-700.5 803.9688,-700.5 809.9688,-706.5 809.9688,-712.5 809.9688,-712.5 809.9688,-988.5 809.9688,-988.5 809.9688,-994.5 803.9688,-1000.5 797.9688,-1000.5 797.9688,-1000.5 692,-1000.5 692,-1000.5 686,-1000.5 680,-994.5 680,-988.5 680,-988.5 680,-712.5 680,-712.5 680,-706.5 686,-700.5 692,-700.5"/>
<text text-anchor="middle" x="744.9844" y="-985.3" font-family="Times,serif" font-size="14.00" fill="#000000">WorkdaysController</text>
<polyline fill="none" stroke="#000000" points="680,-978.5 809.9688,-978.5 "/>
<text text-anchor="start" x="688" y="-963.3" font-family="Times,serif" font-size="14.00" fill="#000000">add_participants</text>
<text text-anchor="start" x="688" y="-949.3" font-family="Times,serif" font-size="14.00" fill="#000000">create</text>
<text text-anchor="start" x="688" y="-935.3" font-family="Times,serif" font-size="14.00" fill="#000000">destroy</text>
<text text-anchor="start" x="688" y="-921.3" font-family="Times,serif" font-size="14.00" fill="#000000">edit</text>
<text text-anchor="start" x="688" y="-907.3" font-family="Times,serif" font-size="14.00" fill="#000000">import</text>
<text text-anchor="start" x="688" y="-893.3" font-family="Times,serif" font-size="14.00" fill="#000000">import_form</text>
<text text-anchor="start" x="688" y="-879.3" font-family="Times,serif" font-size="14.00" fill="#000000">index</text>
<text text-anchor="start" x="688" y="-865.3" font-family="Times,serif" font-size="14.00" fill="#000000">new</text>
<text text-anchor="start" x="688" y="-851.3" font-family="Times,serif" font-size="14.00" fill="#000000">participant_report</text>
<text text-anchor="start" x="688" y="-837.3" font-family="Times,serif" font-size="14.00" fill="#000000">report</text>
<text text-anchor="start" x="688" y="-823.3" font-family="Times,serif" font-size="14.00" fill="#000000">search</text>
<text text-anchor="start" x="688" y="-809.3" font-family="Times,serif" font-size="14.00" fill="#000000">show</text>
<text text-anchor="start" x="688" y="-795.3" font-family="Times,serif" font-size="14.00" fill="#000000">update</text>
<text text-anchor="start" x="688" y="-781.3" font-family="Times,serif" font-size="14.00" fill="#000000">workday_summary</text>
<polyline fill="none" stroke="#000000" points="680,-774.5 809.9688,-774.5 "/>
<polyline fill="none" stroke="#000000" points="680,-750.5 809.9688,-750.5 "/>
<text text-anchor="start" x="688" y="-735.3" font-family="Times,serif" font-size="14.00" fill="#000000">_layout</text>
<text text-anchor="start" x="688" y="-721.3" font-family="Times,serif" font-size="14.00" fill="#000000">consolidate</text>
<text text-anchor="start" x="688" y="-707.3" font-family="Times,serif" font-size="14.00" fill="#000000">workday_params</text>
</g>
</g>
</svg>
