<?xml version="1.0" encoding="UTF-8" standalone="no"?>
<!DOCTYPE svg PUBLIC "-//W3C//DTD SVG 1.1//EN"
 "http://www.w3.org/Graphics/SVG/1.1/DTD/svg11.dtd">
<!-- Generated by graphviz version 2.40.20161221.0239 (20161221.0239)
 -->
<!-- Title: models_diagram Pages: 1 -->
<svg width="976pt" height="459pt"
 viewBox="0.00 0.00 976.32 459.00" xmlns="http://www.w3.org/2000/svg" xmlns:xlink="http://www.w3.org/1999/xlink">
<g id="graph0" class="graph" transform="scale(1 1) rotate(0) translate(4 455)">
<title>models_diagram</title>
<polygon fill="transparent" stroke="transparent" points="-4,4 -4,-455 972.3162,-455 972.3162,4 -4,4"/>
<!-- _diagram_info -->
<g id="node1" class="node">
<title>_diagram_info</title>
<text text-anchor="start" x="453.8665" y="-436.6" font-family="Times,serif" font-size="13.00" fill="#000000">Models diagram</text>
<text text-anchor="start" x="453.8665" y="-423.6" font-family="Times,serif" font-size="13.00" fill="#000000">Date: Dec 23 2016 &#45; 23:59</text>
<text text-anchor="start" x="453.8665" y="-410.6" font-family="Times,serif" font-size="13.00" fill="#000000">Migration version: 20161108052146</text>
<text text-anchor="start" x="453.8665" y="-397.6" font-family="Times,serif" font-size="13.00" fill="#000000">Generated by RailRoady 1.5.2</text>
<text text-anchor="start" x="453.8665" y="-384.6" font-family="Times,serif" font-size="13.00" fill="#000000">http://railroady.prestonlee.com</text>
</g>
<!-- ContactType -->
<g id="node2" class="node">
<title>ContactType</title>
<ellipse fill="none" stroke="#000000" cx="504.3162" cy="-250" rx="55.3329" ry="18"/>
<text text-anchor="middle" x="504.3162" y="-245.8" font-family="Times,serif" font-size="14.00" fill="#000000">ContactType</text>
</g>
<!-- Volunteer -->
<g id="node14" class="node">
<title>Volunteer</title>
<ellipse fill="none" stroke="#000000" cx="521.3162" cy="-164" rx="44.1562" ry="18"/>
<text text-anchor="middle" x="521.3162" y="-159.8" font-family="Times,serif" font-size="14.00" fill="#000000">Volunteer</text>
</g>
<!-- ContactType&#45;&gt;Volunteer -->
<g id="edge1" class="edge">
<title>ContactType&#45;&gt;Volunteer</title>
<path fill="none" stroke="#bcf7c8" d="M537.6316,-228.5225C541.9532,-224.2523 545.7591,-219.3961 548.3162,-214 552.2253,-205.7508 549.7811,-196.9327 545.0656,-189.0346"/>
<ellipse fill="none" stroke="#bcf7c8" cx="534.4787" cy="-231.322" rx="4" ry="4"/>
<polygon fill="#bcf7c8" stroke="#bcf7c8" points="545.0641,-189.0325 542.9121,-178.2798 542.1574,-184.9642 539.2506,-180.8959 539.2506,-180.8959 539.2506,-180.8959 542.1574,-184.9642 535.5892,-183.512 545.0641,-189.0325 545.0641,-189.0325"/>
</g>
<!-- Donation -->
<g id="node3" class="node">
<title>Donation</title>
<ellipse fill="none" stroke="#000000" cx="341.3162" cy="-91" rx="43.0387" ry="18"/>
<text text-anchor="middle" x="341.3162" y="-86.8" font-family="Times,serif" font-size="14.00" fill="#000000">Donation</text>
</g>
<!-- DonationType -->
<g id="node4" class="node">
<title>DonationType</title>
<ellipse fill="none" stroke="#000000" cx="252.3162" cy="-164" rx="60.645" ry="18"/>
<text text-anchor="middle" x="252.3162" y="-159.8" font-family="Times,serif" font-size="14.00" fill="#000000">DonationType</text>
</g>
<!-- DonationType&#45;&gt;Donation -->
<g id="edge2" class="edge">
<title>DonationType&#45;&gt;Donation</title>
<path fill="none" stroke="#f951d4" d="M279.4181,-141.7704C290.2869,-132.8555 302.7993,-122.5925 313.7174,-113.6372"/>
<ellipse fill="none" stroke="#f951d4" cx="276.0511" cy="-144.5321" rx="4" ry="4"/>
<polygon fill="#f951d4" stroke="#f951d4" points="313.9703,-113.4298 324.556,-110.5673 317.8363,-110.2589 321.7022,-107.0879 321.7022,-107.0879 321.7022,-107.0879 317.8363,-110.2589 318.8483,-103.6086 313.9703,-113.4298 313.9703,-113.4298"/>
</g>
<!-- Interest -->
<g id="node5" class="node">
<title>Interest</title>
<ellipse fill="none" stroke="#000000" cx="739.3162" cy="-323" rx="36.7489" ry="18"/>
<text text-anchor="middle" x="739.3162" y="-318.8" font-family="Times,serif" font-size="14.00" fill="#000000">Interest</text>
</g>
<!-- PendingVolunteer -->
<g id="node9" class="node">
<title>PendingVolunteer</title>
<ellipse fill="none" stroke="#000000" cx="688.3162" cy="-250" rx="73.1308" ry="18"/>
<text text-anchor="middle" x="688.3162" y="-245.8" font-family="Times,serif" font-size="14.00" fill="#000000">PendingVolunteer</text>
</g>
<!-- Interest&#45;&gt;PendingVolunteer -->
<g id="edge6" class="edge">
<title>Interest&#45;&gt;PendingVolunteer</title>
<path fill="none" stroke="#fd0b86" d="M721.2984,-297.2098C716.5442,-290.4048 711.4094,-283.0549 706.6393,-276.2271"/>
<polygon fill="#fd0b86" stroke="#fd0b86" points="721.5028,-297.5024 723.541,-308.2772 724.3664,-301.6012 727.2299,-305.7 727.2299,-305.7 727.2299,-305.7 724.3664,-301.6012 730.9189,-303.1228 721.5028,-297.5024 721.5028,-297.5024"/>
<polygon fill="#fd0b86" stroke="#fd0b86" points="706.5755,-276.1358 704.5373,-265.3609 703.7119,-272.037 700.8484,-267.9381 700.8484,-267.9381 700.8484,-267.9381 703.7119,-272.037 697.1594,-270.5154 706.5755,-276.1358 706.5755,-276.1358"/>
</g>
<!-- PendingVolunteerInterest -->
<g id="node10" class="node">
<title>PendingVolunteerInterest</title>
<ellipse fill="none" stroke="#000000" cx="694.3162" cy="-164" rx="99.6655" ry="18"/>
<text text-anchor="middle" x="694.3162" y="-159.8" font-family="Times,serif" font-size="14.00" fill="#000000">PendingVolunteerInterest</text>
</g>
<!-- Interest&#45;&gt;PendingVolunteerInterest -->
<g id="edge5" class="edge">
<title>Interest&#45;&gt;PendingVolunteerInterest</title>
<path fill="none" stroke="#2e1144" d="M757.1581,-299.2272C768.8335,-280.5936 780.2395,-254.1942 770.3162,-232 762.2676,-213.9985 746.8372,-198.7897 731.9715,-187.3508"/>
<ellipse fill="none" stroke="#2e1144" cx="754.7492" cy="-302.872" rx="4" ry="4"/>
<polygon fill="#2e1144" stroke="#2e1144" points="731.8929,-187.2933 726.4779,-177.7577 727.8572,-184.3416 723.8214,-181.3899 723.8214,-181.3899 723.8214,-181.3899 727.8572,-184.3416 721.1648,-185.0221 731.8929,-187.2933 731.8929,-187.2933"/>
</g>
<!-- Interest&#45;&gt;Volunteer -->
<g id="edge4" class="edge">
<title>Interest&#45;&gt;Volunteer</title>
<path fill="none" stroke="#7195ef" d="M696.0712,-312.4636C668.1337,-303.997 632.2831,-289.8505 606.3162,-268 578.9562,-244.9773 586.7061,-227.0468 563.3162,-200 559.3723,-195.4395 554.8368,-190.9507 550.2371,-186.7727"/>
<polygon fill="#7195ef" stroke="#7195ef" points="696.3672,-312.5493 704.7217,-319.6523 701.1701,-313.9395 705.9729,-315.3297 705.9729,-315.3297 705.9729,-315.3297 701.1701,-313.9395 707.2241,-311.0071 696.3672,-312.5493 696.3672,-312.5493"/>
<polygon fill="#7195ef" stroke="#7195ef" points="550.0783,-186.6348 545.4796,-176.6797 546.3035,-183.3559 542.5286,-180.0771 542.5286,-180.0771 542.5286,-180.0771 546.3035,-183.3559 539.5777,-183.4745 550.0783,-186.6348 550.0783,-186.6348"/>
</g>
<!-- VolunteerInterest -->
<g id="node17" class="node">
<title>VolunteerInterest</title>
<ellipse fill="none" stroke="#000000" cx="781.3162" cy="-91" rx="70.6907" ry="18"/>
<text text-anchor="middle" x="781.3162" y="-86.8" font-family="Times,serif" font-size="14.00" fill="#000000">VolunteerInterest</text>
</g>
<!-- Interest&#45;&gt;VolunteerInterest -->
<g id="edge3" class="edge">
<title>Interest&#45;&gt;VolunteerInterest</title>
<path fill="none" stroke="#1f2f77" d="M765.2317,-302.0258C769.9749,-297.409 774.5943,-292.3032 778.3162,-287 797.9432,-259.0343 801.5692,-199.8467 803.3162,-182 804.875,-166.0761 806.3419,-161.7113 803.3162,-146 801.5217,-136.6817 798.1626,-126.9352 794.5999,-118.2799"/>
<ellipse fill="none" stroke="#1f2f77" cx="762.1522" cy="-304.8741" rx="4" ry="4"/>
<polygon fill="#1f2f77" stroke="#1f2f77" points="794.5713,-118.2143 794.6865,-107.249 792.5675,-113.6334 790.5636,-109.0525 790.5636,-109.0525 790.5636,-109.0525 792.5675,-113.6334 786.4408,-110.8559 794.5713,-118.2143 794.5713,-118.2143"/>
</g>
<!-- InterestCategory -->
<g id="node6" class="node">
<title>InterestCategory</title>
<ellipse fill="none" stroke="#000000" cx="739.3162" cy="-414.5" rx="69.0805" ry="18"/>
<text text-anchor="middle" x="739.3162" y="-410.3" font-family="Times,serif" font-size="14.00" fill="#000000">InterestCategory</text>
</g>
<!-- InterestCategory&#45;&gt;Interest -->
<g id="edge7" class="edge">
<title>InterestCategory&#45;&gt;Interest</title>
<path fill="none" stroke="#f8d6b7" d="M739.3162,-388.0044C739.3162,-376.4617 739.3162,-362.9188 739.3162,-351.1908"/>
<ellipse fill="none" stroke="#f8d6b7" cx="739.3163" cy="-392.4225" rx="4" ry="4"/>
<polygon fill="#f8d6b7" stroke="#f8d6b7" points="739.3163,-351.0399 743.8162,-341.0399 739.3163,-346.0399 739.3162,-341.0399 739.3162,-341.0399 739.3162,-341.0399 739.3163,-346.0399 734.8162,-341.0399 739.3163,-351.0399 739.3163,-351.0399"/>
</g>
<!-- Organization -->
<g id="node7" class="node">
<title>Organization</title>
<ellipse fill="none" stroke="#000000" cx="335.3162" cy="-250" rx="56.2326" ry="18"/>
<text text-anchor="middle" x="335.3162" y="-245.8" font-family="Times,serif" font-size="14.00" fill="#000000">Organization</text>
</g>
<!-- Organization&#45;&gt;Donation -->
<g id="edge10" class="edge">
<title>Organization&#45;&gt;Donation</title>
<path fill="none" stroke="#60d31a" d="M336.3115,-223.6239C337.4012,-194.749 339.1413,-148.6357 340.256,-119.0968"/>
<ellipse fill="none" stroke="#60d31a" cx="336.1554" cy="-227.7635" rx="4" ry="4"/>
<polygon fill="#60d31a" stroke="#60d31a" points="340.2588,-119.0195 345.1328,-109.1963 340.4474,-114.023 340.636,-109.0266 340.636,-109.0266 340.636,-109.0266 340.4474,-114.023 336.1392,-108.8569 340.2588,-119.0195 340.2588,-119.0195"/>
</g>
<!-- Organization&#45;&gt;Volunteer -->
<g id="edge11" class="edge">
<title>Organization&#45;&gt;Volunteer</title>
<path fill="none" stroke="#dac4de" d="M347.2996,-224.6395C352.7246,-215.6322 359.9536,-206.2004 368.909,-200 385.1013,-188.789 431.7792,-178.7372 469.2509,-172.1233"/>
<ellipse fill="none" stroke="#dac4de" cx="345.2943" cy="-228.2139" rx="4" ry="4"/>
<polygon fill="#dac4de" stroke="#dac4de" points="469.6878,-172.0481 480.3065,-174.7856 474.6153,-171.1995 479.5427,-170.3509 479.5427,-170.3509 479.5427,-170.3509 474.6153,-171.1995 478.779,-165.9162 469.6878,-172.0481 469.6878,-172.0481"/>
<text text-anchor="middle" x="417.5198" y="-202.8" font-family="Times,serif" font-size="14.00" fill="#000000">church_members</text>
</g>
<!-- Organization&#45;&gt;Volunteer -->
<g id="edge12" class="edge">
<title>Organization&#45;&gt;Volunteer</title>
<path fill="none" stroke="#e8a8ca" d="M393.5907,-239.8615C416.831,-234.3139 443.249,-226.0412 465.3162,-214 472.2613,-210.2103 485.2139,-198.7698 496.9139,-187.7874"/>
<ellipse fill="none" stroke="#e8a8ca" cx="389.4142" cy="-240.8184" rx="4" ry="4"/>
<polygon fill="#e8a8ca" stroke="#e8a8ca" points="497.0985,-187.6119 507.4465,-183.983 500.7222,-184.1668 504.3458,-180.7216 504.3458,-180.7216 504.3458,-180.7216 500.7222,-184.1668 501.2452,-177.4603 497.0985,-187.6119 497.0985,-187.6119"/>
<text text-anchor="middle" x="513.2508" y="-202.8" font-family="Times,serif" font-size="14.00" fill="#000000">employees</text>
</g>
<!-- Workday -->
<g id="node18" class="node">
<title>Workday</title>
<ellipse fill="none" stroke="#000000" cx="138.3162" cy="-91" rx="42.1146" ry="18"/>
<text text-anchor="middle" x="138.3162" y="-86.8" font-family="Times,serif" font-size="14.00" fill="#000000">Workday</text>
</g>
<!-- Organization&#45;&gt;Workday -->
<g id="edge9" class="edge">
<title>Organization&#45;&gt;Workday</title>
<path fill="none" stroke="#e1c988" d="M273.729,-241.1582C209.7378,-230.5622 115.952,-210.5853 94.3162,-182 78.6785,-161.3394 95.7177,-134.2384 112.9412,-114.9998"/>
<polygon fill="#e1c988" stroke="#e1c988" points="273.8565,-241.1788 283.0081,-247.2202 278.7921,-241.9785 283.7278,-242.7781 283.7278,-242.7781 283.7278,-242.7781 278.7921,-241.9785 284.4475,-238.3361 273.8565,-241.1788 273.8565,-241.1788"/>
<polygon fill="#e1c988" stroke="#e1c988" points="113.1233,-114.8068 123.259,-110.6211 116.5546,-111.1699 119.9858,-107.533 119.9858,-107.533 119.9858,-107.533 116.5546,-111.1699 116.7126,-104.4449 113.1233,-114.8068 113.1233,-114.8068"/>
</g>
<!-- WorkdayOrganization -->
<g id="node19" class="node">
<title>WorkdayOrganization</title>
<ellipse fill="none" stroke="#000000" cx="88.3162" cy="-18" rx="88.1328" ry="18"/>
<text text-anchor="middle" x="88.3162" y="-13.8" font-family="Times,serif" font-size="14.00" fill="#000000">WorkdayOrganization</text>
</g>
<!-- Organization&#45;&gt;WorkdayOrganization -->
<g id="edge8" class="edge">
<title>Organization&#45;&gt;WorkdayOrganization</title>
<path fill="none" stroke="#2e0d75" d="M273.1534,-244.0653C218.2912,-238.0563 143.0127,-227.701 116.3162,-214 98.4219,-204.8164 92.0132,-200.5822 84.3162,-182 65.8269,-137.3629 73.5983,-79.869 80.9456,-46.1586"/>
<ellipse fill="none" stroke="#2e0d75" cx="277.4546" cy="-244.5282" rx="4" ry="4"/>
<polygon fill="#2e0d75" stroke="#2e0d75" points="81.0203,-45.8366 87.6657,-37.1137 82.1513,-40.9662 83.2823,-36.0957 83.2823,-36.0957 83.2823,-36.0957 82.1513,-40.9662 78.8989,-35.0778 81.0203,-45.8366 81.0203,-45.8366"/>
</g>
<!-- OrganizationType -->
<g id="node8" class="node">
<title>OrganizationType</title>
<ellipse fill="none" stroke="#000000" cx="335.3162" cy="-323" rx="73.8389" ry="18"/>
<text text-anchor="middle" x="335.3162" y="-318.8" font-family="Times,serif" font-size="14.00" fill="#000000">OrganizationType</text>
</g>
<!-- OrganizationType&#45;&gt;Organization -->
<g id="edge13" class="edge">
<title>OrganizationType&#45;&gt;Organization</title>
<path fill="none" stroke="#0956cd" d="M335.3162,-296.9079C335.3162,-290.9427 335.3162,-284.5729 335.3162,-278.512"/>
<ellipse fill="none" stroke="#0956cd" cx="335.3163" cy="-300.9551" rx="4" ry="4"/>
<polygon fill="#0956cd" stroke="#0956cd" points="335.3163,-278.0904 339.8162,-268.0903 335.3163,-273.0904 335.3162,-268.0904 335.3162,-268.0904 335.3162,-268.0904 335.3163,-273.0904 330.8162,-268.0904 335.3163,-278.0904 335.3163,-278.0904"/>
</g>
<!-- PendingVolunteer&#45;&gt;PendingVolunteerInterest -->
<g id="edge14" class="edge">
<title>PendingVolunteer&#45;&gt;PendingVolunteerInterest</title>
<path fill="none" stroke="#d6eb43" d="M690.1719,-223.4021C690.8568,-213.585 691.6353,-202.4263 692.3312,-192.4515"/>
<ellipse fill="none" stroke="#d6eb43" cx="689.8671" cy="-227.7713" rx="4" ry="4"/>
<polygon fill="#d6eb43" stroke="#d6eb43" points="692.3495,-192.1878 697.5347,-182.5253 692.6976,-187.2 693.0456,-182.2121 693.0456,-182.2121 693.0456,-182.2121 692.6976,-187.2 688.5565,-181.8989 692.3495,-192.1878 692.3495,-192.1878"/>
</g>
<!-- PendingVolunteer&#45;&gt;Volunteer -->
<g id="edge15" class="edge">
<title>PendingVolunteer&#45;&gt;Volunteer</title>
<path fill="none" stroke="#2efc29" d="M653.8667,-229.1556C638.0552,-219.8609 618.9406,-209.0022 601.3162,-200 587.9372,-193.1662 572.991,-186.2539 559.6717,-180.3382"/>
<ellipse fill="none" stroke="#2efc29" cx="657.4388" cy="-231.2678" rx="4" ry="4"/>
<ellipse fill="#2efc29" stroke="#2efc29" cx="555.7025" cy="-178.5904" rx="4" ry="4"/>
</g>
<!-- Project -->
<g id="node11" class="node">
<title>Project</title>
<ellipse fill="none" stroke="#000000" cx="138.3162" cy="-164" rx="35.3129" ry="18"/>
<text text-anchor="middle" x="138.3162" y="-159.8" font-family="Times,serif" font-size="14.00" fill="#000000">Project</text>
</g>
<!-- Project&#45;&gt;Workday -->
<g id="edge16" class="edge">
<title>Project&#45;&gt;Workday</title>
<path fill="none" stroke="#6380bb" d="M138.3162,-137.9079C138.3162,-131.9427 138.3162,-125.5729 138.3162,-119.512"/>
<ellipse fill="none" stroke="#6380bb" cx="138.3163" cy="-141.9551" rx="4" ry="4"/>
<polygon fill="#6380bb" stroke="#6380bb" points="138.3163,-119.0904 142.8162,-109.0903 138.3163,-114.0904 138.3162,-109.0904 138.3162,-109.0904 138.3162,-109.0904 138.3163,-114.0904 133.8162,-109.0904 138.3163,-119.0904 138.3163,-119.0904"/>
</g>
<!-- Setting -->
<g id="node12" class="node">
<title>Setting</title>
<ellipse fill="none" stroke="#000000" cx="861.3162" cy="-414.5" rx="35.3303" ry="18"/>
<text text-anchor="middle" x="861.3162" y="-410.3" font-family="Times,serif" font-size="14.00" fill="#000000">Setting</text>
</g>
<!-- User -->
<g id="node13" class="node">
<title>User</title>
<ellipse fill="none" stroke="#000000" cx="941.3162" cy="-414.5" rx="27" ry="18"/>
<text text-anchor="middle" x="941.3162" y="-410.3" font-family="Times,serif" font-size="14.00" fill="#000000">User</text>
</g>
<!-- Volunteer&#45;&gt;Donation -->
<g id="edge20" class="edge">
<title>Volunteer&#45;&gt;Donation</title>
<path fill="none" stroke="#c946b1" d="M475.6645,-152.3822C453.9428,-146.2145 427.8541,-137.8641 405.3162,-128 394.604,-123.3116 383.4103,-117.2739 373.4346,-111.4411"/>
<ellipse fill="none" stroke="#c946b1" cx="479.6019" cy="-153.4801" rx="4" ry="4"/>
<polygon fill="#c946b1" stroke="#c946b1" points="373.2428,-111.3262 366.9773,-102.3265 368.9536,-108.7565 364.6645,-106.1867 364.6645,-106.1867 364.6645,-106.1867 368.9536,-108.7565 362.3517,-110.0469 373.2428,-111.3262 373.2428,-111.3262"/>
</g>
<!-- VolunteerCategory -->
<g id="node15" class="node">
<title>VolunteerCategory</title>
<ellipse fill="none" stroke="#000000" cx="521.3162" cy="-91" rx="76.9882" ry="18"/>
<text text-anchor="middle" x="521.3162" y="-86.8" font-family="Times,serif" font-size="14.00" fill="#000000">VolunteerCategory</text>
</g>
<!-- Volunteer&#45;&gt;VolunteerCategory -->
<g id="edge22" class="edge">
<title>Volunteer&#45;&gt;VolunteerCategory</title>
<path fill="none" stroke="#2d246a" d="M521.3162,-135.8688C521.3162,-130.3894 521.3162,-124.6439 521.3162,-119.1634"/>
<polygon fill="#2d246a" stroke="#2d246a" points="521.3163,-135.9551 516.8162,-145.955 521.3163,-140.9551 521.3162,-145.9551 521.3162,-145.9551 521.3162,-145.9551 521.3163,-140.9551 525.8162,-145.9551 521.3163,-135.9551 521.3163,-135.9551"/>
<polygon fill="#2d246a" stroke="#2d246a" points="521.3163,-119.0904 525.8162,-109.0903 521.3163,-114.0904 521.3162,-109.0904 521.3162,-109.0904 521.3162,-109.0904 521.3163,-114.0904 516.8162,-109.0904 521.3163,-119.0904 521.3163,-119.0904"/>
</g>
<!-- VolunteerCategoryVolunteer -->
<g id="node16" class="node">
<title>VolunteerCategoryVolunteer</title>
<ellipse fill="none" stroke="#000000" cx="594.3162" cy="-18" rx="110.9293" ry="18"/>
<text text-anchor="middle" x="594.3162" y="-13.8" font-family="Times,serif" font-size="14.00" fill="#000000">VolunteerCategoryVolunteer</text>
</g>
<!-- Volunteer&#45;&gt;VolunteerCategoryVolunteer -->
<g id="edge21" class="edge">
<title>Volunteer&#45;&gt;VolunteerCategoryVolunteer</title>
<path fill="none" stroke="#0b4f32" d="M562.1058,-148.5085C579.2997,-139.7076 597.5607,-126.819 607.3162,-109 617.9052,-89.6587 613.2772,-64.6872 606.7735,-45.7969"/>
<ellipse fill="none" stroke="#0b4f32" cx="558.4302" cy="-150.2888" rx="4" ry="4"/>
<polygon fill="#0b4f32" stroke="#0b4f32" points="606.7065,-45.6201 607.3704,-34.6743 604.9345,-40.9446 603.1625,-36.2691 603.1625,-36.2691 603.1625,-36.2691 604.9345,-40.9446 598.9546,-37.8639 606.7065,-45.6201 606.7065,-45.6201"/>
</g>
<!-- Volunteer&#45;&gt;VolunteerInterest -->
<g id="edge17" class="edge">
<title>Volunteer&#45;&gt;VolunteerInterest</title>
<path fill="none" stroke="#e41467" d="M565.9879,-151.4324C572.4721,-149.6093 579.0657,-147.756 585.3162,-146 631.6985,-132.9698 684.2599,-118.2214 723.2681,-107.2793"/>
<ellipse fill="none" stroke="#e41467" cx="561.7179" cy="-152.6332" rx="4" ry="4"/>
<polygon fill="#e41467" stroke="#e41467" points="723.7585,-107.1418 734.6022,-108.7738 728.5727,-105.7914 733.3869,-104.441 733.3869,-104.441 733.3869,-104.441 728.5727,-105.7914 732.1715,-100.1083 723.7585,-107.1418 723.7585,-107.1418"/>
</g>
<!-- Volunteer&#45;&gt;Workday -->
<g id="edge19" class="edge">
<title>Volunteer&#45;&gt;Workday</title>
<path fill="none" stroke="#b44698" d="M471.0629,-154.4217C397.1657,-140.3368 260.0692,-114.2062 187.0497,-100.2886"/>
<polygon fill="#b44698" stroke="#b44698" points="471.2292,-154.4533 480.2098,-160.7461 476.1408,-155.3895 481.0524,-156.3257 481.0524,-156.3257 481.0524,-156.3257 476.1408,-155.3895 481.895,-151.9053 471.2292,-154.4533 471.2292,-154.4533"/>
<polygon fill="#b44698" stroke="#b44698" points="187.008,-100.2808 178.0274,-93.9879 182.0964,-99.3446 177.1848,-98.4084 177.1848,-98.4084 177.1848,-98.4084 182.0964,-99.3446 176.3422,-102.8288 187.008,-100.2808 187.008,-100.2808"/>
</g>
<!-- WorkdayVolunteer -->
<g id="node20" class="node">
<title>WorkdayVolunteer</title>
<ellipse fill="none" stroke="#000000" cx="344.3162" cy="-18" rx="76.5556" ry="18"/>
<text text-anchor="middle" x="344.3162" y="-13.8" font-family="Times,serif" font-size="14.00" fill="#000000">WorkdayVolunteer</text>
</g>
<!-- Volunteer&#45;&gt;WorkdayVolunteer -->
<g id="edge18" class="edge">
<title>Volunteer&#45;&gt;WorkdayVolunteer</title>
<path fill="none" stroke="#b797ac" d="M487.8294,-144.9097C471.4263,-134.9867 451.7255,-122.1935 435.3162,-109 410.2179,-88.8203 384.5335,-62.5157 366.8798,-43.3809"/>
<ellipse fill="none" stroke="#b797ac" cx="491.676" cy="-147.207" rx="4" ry="4"/>
<polygon fill="#b797ac" stroke="#b797ac" points="366.8057,-43.2997 363.386,-32.8806 363.4343,-39.6073 360.0628,-35.9149 360.0628,-35.9149 360.0628,-35.9149 363.4343,-39.6073 356.7397,-38.9492 366.8057,-43.2997 366.8057,-43.2997"/>
</g>
<!-- VolunteerCategory&#45;&gt;VolunteerCategoryVolunteer -->
<g id="edge23" class="edge">
<title>VolunteerCategory&#45;&gt;VolunteerCategoryVolunteer</title>
<path fill="none" stroke="#d05627" d="M544.7926,-67.5237C552.4547,-59.8615 560.9981,-51.3181 568.8025,-43.5137"/>
<ellipse fill="none" stroke="#d05627" cx="541.8159" cy="-70.5003" rx="4" ry="4"/>
<polygon fill="#d05627" stroke="#d05627" points="569.2295,-43.0868 579.4825,-39.1977 572.765,-39.5512 576.3006,-36.0157 576.3006,-36.0157 576.3006,-36.0157 572.765,-39.5512 573.1186,-32.8337 569.2295,-43.0868 569.2295,-43.0868"/>
</g>
<!-- Workday&#45;&gt;WorkdayOrganization -->
<g id="edge25" class="edge">
<title>Workday&#45;&gt;WorkdayOrganization</title>
<path fill="none" stroke="#777c90" d="M121.8603,-66.9743C116.8806,-59.7039 111.3868,-51.683 106.3118,-44.2736"/>
<ellipse fill="none" stroke="#777c90" cx="124.2065" cy="-70.3999" rx="4" ry="4"/>
<polygon fill="#777c90" stroke="#777c90" points="106.2536,-44.1885 104.3153,-33.3952 103.4281,-40.0633 100.6026,-35.9381 100.6026,-35.9381 100.6026,-35.9381 103.4281,-40.0633 96.89,-38.4811 106.2536,-44.1885 106.2536,-44.1885"/>
</g>
<!-- Workday&#45;&gt;WorkdayVolunteer -->
<g id="edge24" class="edge">
<title>Workday&#45;&gt;WorkdayVolunteer</title>
<path fill="none" stroke="#937f0b" d="M178.7254,-76.6803C211.1787,-65.1798 256.9855,-48.9473 292.1974,-36.4693"/>
<ellipse fill="none" stroke="#937f0b" cx="174.7278" cy="-78.0968" rx="4" ry="4"/>
<polygon fill="#937f0b" stroke="#937f0b" points="292.4024,-36.3967 303.3312,-37.298 297.1152,-34.7266 301.8281,-33.0565 301.8281,-33.0565 301.8281,-33.0565 297.1152,-34.7266 300.325,-28.8149 292.4024,-36.3967 292.4024,-36.3967"/>
</g>
</g>
</svg>
